<svg width="18" height="18" viewBox="0 0 18 18" fill="none" xmlns="http://www.w3.org/2000/svg">
<path d="M1 1L17 17" stroke="black" stroke-width="1.5" stroke-linecap="round" stroke-linejoin="round"/>
<path d="M7.66667 7.82408C7.39005 8.13741 7.22223 8.54915 7.22223 8.99999C7.22223 9.98177 8.01814 10.7778 9.00001 10.7778C9.45085 10.7778 9.8625 10.6099 10.1759 10.3333" stroke="black" stroke-width="1.5" stroke-linecap="round" stroke-linejoin="round"/>
<path d="M4.8772 5.05431C3.38224 6.10193 2.13684 7.59448 1 8.99999C2.67872 11.6587 5.69484 14.3333 9 14.3333C10.3777 14.3333 11.7052 13.8686 12.9066 13.134" stroke="black" stroke-width="1.5" stroke-linecap="round" stroke-linejoin="round"/>
<path d="M9 3.66667C12.563 3.66667 14.9569 6.47396 17 9.00001C16.7169 9.44827 16.3958 9.89707 16.0418 10.3333" stroke="black" stroke-width="1.5" stroke-linecap="round" stroke-linejoin="round"/>
</svg>
